<?xml version="1.0" standalone="no"?>
<!DOCTYPE svg PUBLIC "-//W3C//DTD SVG 20010904//EN"
 "http://www.w3.org/TR/2001/REC-SVG-20010904/DTD/svg10.dtd">
<svg version="1.0" xmlns="http://www.w3.org/2000/svg"
 width="497.000000pt" height="497.000000pt" viewBox="0 0 497.000000 497.000000"
 preserveAspectRatio="xMidYMid meet">
<metadata>
Created by potrace 1.14, written by Peter Selinger 2001-2017
</metadata>
<g transform="translate(0.000000,497.000000) scale(0.100000,-0.100000)"
fill="#000000" stroke="none">
<path d="M275 4792 c-1 -2 -16 -4 -31 -6 -22 -3 -30 -9 -34 -32 -11 -51 -1
-271 17 -384 4 -25 7 -49 8 -55 2 -20 18 -91 32 -145 8 -30 16 -62 18 -70 14
-60 78 -213 195 -465 144 -311 241 -601 276 -825 3 -19 7 -42 9 -50 29 -110
23 -478 -10 -645 -3 -16 -10 -55 -16 -85 -6 -30 -13 -62 -16 -70 -3 -8 -8 -24
-10 -35 -4 -26 -72 -242 -86 -275 -5 -14 -11 -32 -13 -40 -2 -8 -7 -23 -13
-35 -31 -65 -61 -139 -61 -151 0 -8 -5 -14 -12 -14 -6 0 -9 -3 -6 -6 4 -3 -19
-58 -49 -122 -51 -109 -63 -136 -115 -250 -23 -52 -95 -265 -103 -307 -3 -16
-8 -41 -10 -55 -4 -26 -12 -71 -19 -107 -18 -87 -27 -396 -12 -410 4 -5 71 -7
149 -6 135 1 181 4 272 18 22 4 54 9 70 11 56 9 160 35 240 62 44 14 83 25 88
24 4 -1 7 3 7 8 0 6 7 10 15 10 8 0 23 4 33 9 27 15 127 63 127 61 0 -1 29 12
65 28 213 97 340 151 340 144 0 -4 4 -2 8 3 11 17 322 117 432 140 8 2 16 4
18 5 1 2 10 3 20 4 9 1 31 5 47 9 141 32 397 46 550 32 100 -10 130 -14 174
-21 65 -11 65 -11 71 -14 3 -1 14 -4 25 -5 44 -6 89 -16 99 -23 6 -3 17 -7 25
-9 36 -5 117 -26 126 -33 6 -4 22 -10 37 -14 15 -3 37 -10 50 -15 13 -5 26 -9
31 -10 4 0 21 -8 37 -16 17 -9 30 -13 30 -9 0 4 7 1 15 -6 8 -7 15 -9 15 -4 0
4 5 3 12 -4 7 -7 20 -12 30 -12 10 0 18 -4 18 -10 0 -5 7 -10 15 -10 15 0 41
-11 180 -75 44 -21 85 -38 91 -39 7 -1 18 -6 25 -12 8 -6 43 -23 79 -38 36
-16 83 -37 105 -46 42 -19 217 -81 225 -81 3 0 23 -4 44 -10 22 -6 51 -12 65
-14 14 -2 26 -4 26 -5 0 -1 9 -3 20 -5 11 -1 34 -5 50 -8 100 -19 425 -30 441
-14 10 10 13 198 3 218 -5 9 -3 21 3 27 7 7 8 12 3 12 -6 0 -11 30 -13 66 -1
37 -5 78 -8 93 -3 14 -7 40 -10 56 -4 23 -18 91 -29 135 -35 139 -70 227 -208
520 -11 25 -21 47 -22 50 0 3 -3 10 -7 15 -35 56 -198 501 -198 542 0 10 -5
24 -12 31 -7 7 -9 12 -5 12 3 0 2 12 -4 26 -5 15 -12 43 -15 63 -4 20 -7 41
-9 46 -3 14 -14 74 -20 110 -8 44 -18 171 -19 242 0 35 -5 63 -11 63 -7 0 -7
3 0 8 6 4 11 27 11 52 3 88 15 200 30 280 3 14 7 39 10 55 3 17 10 48 16 70 5
22 12 47 13 55 2 8 11 40 20 70 9 30 17 62 19 70 1 9 5 20 8 25 3 6 13 33 21
60 34 109 140 359 260 615 34 71 76 173 82 195 1 6 5 17 8 25 11 30 38 133 42
161 2 16 6 33 9 38 3 5 8 26 11 47 3 22 7 53 9 69 18 116 28 342 17 384 -8 27
-20 30 -118 34 -35 1 -63 -2 -63 -7 0 -5 -6 -3 -13 3 -8 6 -16 9 -18 6 -3 -2
-32 -7 -64 -10 -87 -9 -137 -14 -165 -19 -14 -3 -41 -7 -60 -10 -48 -8 -71
-13 -114 -24 -20 -6 -36 -8 -36 -5 0 3 -6 0 -13 -6 -8 -6 -24 -13 -38 -15 -13
-3 -25 -5 -26 -7 -2 -1 -6 -2 -10 -3 -30 -7 -155 -59 -273 -114 -30 -14 -57
-26 -60 -27 -3 0 -27 -12 -55 -24 -106 -50 -176 -81 -180 -81 -2 0 -28 -11
-57 -24 -29 -13 -71 -29 -93 -36 -22 -7 -44 -15 -50 -19 -5 -3 -12 -6 -15 -7
-3 0 -12 -3 -20 -6 -8 -4 -40 -13 -70 -23 -30 -9 -62 -19 -70 -22 -19 -8 -17
-7 -65 -17 -22 -4 -44 -11 -50 -14 -11 -7 -14 -8 -70 -17 -22 -3 -49 -9 -60
-12 -20 -6 -28 -8 -95 -17 -92 -14 -142 -18 -227 -21 -50 -2 -96 -6 -102 -10
-6 -3 -11 -3 -11 2 0 4 -30 9 -68 10 -102 2 -196 14 -312 38 -14 3 -36 8 -50
10 -14 2 -59 14 -100 25 -41 12 -79 22 -85 23 -5 2 -14 5 -20 9 -5 3 -30 11
-55 18 -59 15 -252 89 -370 142 -25 11 -70 32 -100 45 -30 14 -77 35 -105 48
-121 57 -165 76 -240 105 -44 16 -85 30 -92 30 -7 0 -32 6 -55 14 -24 8 -56
17 -73 19 -16 3 -37 7 -45 10 -14 6 -63 13 -140 23 -89 11 -309 22 -315 16z"/>
</g>
</svg>
